<mxfile host="Electron" modified="2023-10-17T14:51:09.385Z" agent="Mozilla/5.0 (Windows NT 10.0; Win64; x64) AppleWebKit/537.36 (KHTML, like Gecko) draw.io/22.0.2 Chrome/114.0.5735.289 Electron/25.8.4 Safari/537.36" etag="4O4RRgTUBZKjs_noThN5" version="22.0.2" type="device" pages="3">
  <diagram id="PdQKV_AviZreMKFswml6" name="Page-1">
    <mxGraphModel dx="1418" dy="820" grid="1" gridSize="10" guides="1" tooltips="1" connect="1" arrows="1" fold="1" page="1" pageScale="1" pageWidth="850" pageHeight="1100" math="0" shadow="0">
      <root>
        <mxCell id="0" />
        <mxCell id="1" parent="0" />
        <mxCell id="2" value="Task" style="rounded=0;whiteSpace=wrap;html=1;" parent="1" vertex="1">
          <mxGeometry x="170" y="250" width="120" height="60" as="geometry" />
        </mxCell>
        <mxCell id="3" value="TaskList" style="rounded=0;whiteSpace=wrap;html=1;" parent="1" vertex="1">
          <mxGeometry x="520" y="250" width="120" height="60" as="geometry" />
        </mxCell>
        <mxCell id="4" value="Relation" style="endArrow=open;html=1;endSize=12;startArrow=diamondThin;startSize=14;startFill=0;edgeStyle=orthogonalEdgeStyle;rounded=0;entryX=0;entryY=0.5;entryDx=0;entryDy=0;" parent="1" source="2" target="3" edge="1">
          <mxGeometry relative="1" as="geometry">
            <mxPoint x="340" y="410" as="sourcePoint" />
            <mxPoint x="500" y="410" as="targetPoint" />
          </mxGeometry>
        </mxCell>
        <mxCell id="5" value="0..n" style="edgeLabel;resizable=0;html=1;align=left;verticalAlign=top;" parent="4" connectable="0" vertex="1">
          <mxGeometry x="-1" relative="1" as="geometry" />
        </mxCell>
        <mxCell id="6" value="1" style="edgeLabel;resizable=0;html=1;align=right;verticalAlign=top;" parent="4" connectable="0" vertex="1">
          <mxGeometry x="1" relative="1" as="geometry" />
        </mxCell>
        <mxCell id="8" value="User" style="html=1;" parent="1" vertex="1">
          <mxGeometry x="820" y="255" width="110" height="50" as="geometry" />
        </mxCell>
        <mxCell id="11" value="Relation" style="endArrow=open;html=1;endSize=12;startArrow=diamondThin;startSize=14;startFill=0;edgeStyle=orthogonalEdgeStyle;rounded=0;entryX=0;entryY=0.5;entryDx=0;entryDy=0;exitX=1;exitY=0.5;exitDx=0;exitDy=0;" parent="1" source="3" target="8" edge="1">
          <mxGeometry relative="1" as="geometry">
            <mxPoint x="680" y="220" as="sourcePoint" />
            <mxPoint x="500" y="410" as="targetPoint" />
            <Array as="points" />
          </mxGeometry>
        </mxCell>
        <mxCell id="12" value="1" style="edgeLabel;resizable=0;html=1;align=left;verticalAlign=top;" parent="11" connectable="0" vertex="1">
          <mxGeometry x="-1" relative="1" as="geometry" />
        </mxCell>
        <mxCell id="13" value="1" style="edgeLabel;resizable=0;html=1;align=right;verticalAlign=top;" parent="11" connectable="0" vertex="1">
          <mxGeometry x="1" relative="1" as="geometry" />
        </mxCell>
      </root>
    </mxGraphModel>
  </diagram>
  <diagram id="nkBJ4IhWX84agAnz0iTn" name="UC01 - User">
    <mxGraphModel dx="1418" dy="820" grid="1" gridSize="10" guides="1" tooltips="1" connect="1" arrows="1" fold="1" page="1" pageScale="1" pageWidth="850" pageHeight="1100" math="0" shadow="0">
      <root>
        <mxCell id="0" />
        <mxCell id="1" parent="0" />
        <mxCell id="EKskkTxlIlueC_K74CWc-3" style="edgeStyle=orthogonalEdgeStyle;rounded=0;orthogonalLoop=1;jettySize=auto;html=1;" parent="1" source="EKskkTxlIlueC_K74CWc-1" target="EKskkTxlIlueC_K74CWc-2" edge="1">
          <mxGeometry relative="1" as="geometry" />
        </mxCell>
        <mxCell id="EKskkTxlIlueC_K74CWc-11" style="edgeStyle=orthogonalEdgeStyle;rounded=0;orthogonalLoop=1;jettySize=auto;html=1;entryX=0.5;entryY=1;entryDx=0;entryDy=0;" parent="1" source="EKskkTxlIlueC_K74CWc-1" target="EKskkTxlIlueC_K74CWc-8" edge="1">
          <mxGeometry relative="1" as="geometry">
            <Array as="points">
              <mxPoint x="425" y="330" />
              <mxPoint x="220" y="330" />
            </Array>
          </mxGeometry>
        </mxCell>
        <mxCell id="EKskkTxlIlueC_K74CWc-12" style="edgeStyle=orthogonalEdgeStyle;rounded=0;orthogonalLoop=1;jettySize=auto;html=1;entryX=0;entryY=0.5;entryDx=0;entryDy=0;" parent="1" source="EKskkTxlIlueC_K74CWc-1" target="EKskkTxlIlueC_K74CWc-9" edge="1">
          <mxGeometry relative="1" as="geometry" />
        </mxCell>
        <mxCell id="EKskkTxlIlueC_K74CWc-13" style="edgeStyle=orthogonalEdgeStyle;rounded=0;orthogonalLoop=1;jettySize=auto;html=1;entryX=0.207;entryY=0.914;entryDx=0;entryDy=0;entryPerimeter=0;" parent="1" source="EKskkTxlIlueC_K74CWc-1" target="EKskkTxlIlueC_K74CWc-10" edge="1">
          <mxGeometry relative="1" as="geometry" />
        </mxCell>
        <mxCell id="HsijXe8ZhtqMuR4YR2W3-1" style="edgeStyle=orthogonalEdgeStyle;rounded=0;orthogonalLoop=1;jettySize=auto;html=1;entryX=0.5;entryY=0;entryDx=0;entryDy=0;" edge="1" parent="1" source="EKskkTxlIlueC_K74CWc-1" target="HsijXe8ZhtqMuR4YR2W3-2">
          <mxGeometry relative="1" as="geometry">
            <mxPoint x="650" y="580" as="targetPoint" />
            <Array as="points">
              <mxPoint x="651" y="440" />
            </Array>
          </mxGeometry>
        </mxCell>
        <mxCell id="EKskkTxlIlueC_K74CWc-1" value="Usuario" style="shape=umlActor;verticalLabelPosition=bottom;verticalAlign=top;html=1;" parent="1" vertex="1">
          <mxGeometry x="410" y="380" width="30" height="60" as="geometry" />
        </mxCell>
        <mxCell id="EKskkTxlIlueC_K74CWc-2" value="Create Task" style="ellipse;whiteSpace=wrap;html=1;" parent="1" vertex="1">
          <mxGeometry x="110" y="375" width="140" height="70" as="geometry" />
        </mxCell>
        <mxCell id="EKskkTxlIlueC_K74CWc-8" value="Edit Task" style="ellipse;whiteSpace=wrap;html=1;" parent="1" vertex="1">
          <mxGeometry x="150" y="180" width="140" height="70" as="geometry" />
        </mxCell>
        <mxCell id="EKskkTxlIlueC_K74CWc-9" value="Delete Task" style="ellipse;whiteSpace=wrap;html=1;" parent="1" vertex="1">
          <mxGeometry x="570" y="250" width="140" height="70" as="geometry" />
        </mxCell>
        <mxCell id="EKskkTxlIlueC_K74CWc-10" value="View Task" style="ellipse;whiteSpace=wrap;html=1;" parent="1" vertex="1">
          <mxGeometry x="300" y="570" width="140" height="70" as="geometry" />
        </mxCell>
        <mxCell id="HsijXe8ZhtqMuR4YR2W3-2" value="Get Daily Report" style="ellipse;whiteSpace=wrap;html=1;" vertex="1" parent="1">
          <mxGeometry x="590" y="540" width="140" height="70" as="geometry" />
        </mxCell>
      </root>
    </mxGraphModel>
  </diagram>
  <diagram id="Vr7-dGUjN-MFvS8S6axF" name="UC02-Tasks">
    <mxGraphModel dx="1418" dy="820" grid="1" gridSize="10" guides="1" tooltips="1" connect="1" arrows="1" fold="1" page="1" pageScale="1" pageWidth="850" pageHeight="1100" math="0" shadow="0">
      <root>
        <mxCell id="0" />
        <mxCell id="1" parent="0" />
        <mxCell id="15NfHXU1h-tPqAztqm66-3" style="edgeStyle=orthogonalEdgeStyle;rounded=0;orthogonalLoop=1;jettySize=auto;html=1;" edge="1" parent="1" source="15NfHXU1h-tPqAztqm66-1" target="15NfHXU1h-tPqAztqm66-2">
          <mxGeometry relative="1" as="geometry" />
        </mxCell>
        <mxCell id="15NfHXU1h-tPqAztqm66-5" style="edgeStyle=orthogonalEdgeStyle;rounded=0;orthogonalLoop=1;jettySize=auto;html=1;" edge="1" parent="1" source="15NfHXU1h-tPqAztqm66-1" target="15NfHXU1h-tPqAztqm66-4">
          <mxGeometry relative="1" as="geometry" />
        </mxCell>
        <mxCell id="15NfHXU1h-tPqAztqm66-1" value="Tasks" style="shape=umlActor;verticalLabelPosition=bottom;verticalAlign=top;html=1;outlineConnect=0;" vertex="1" parent="1">
          <mxGeometry x="400" y="360" width="30" height="60" as="geometry" />
        </mxCell>
        <mxCell id="15NfHXU1h-tPqAztqm66-2" value="Get Daily Report" style="ellipse;whiteSpace=wrap;html=1;" vertex="1" parent="1">
          <mxGeometry x="90" y="190" width="140" height="70" as="geometry" />
        </mxCell>
        <mxCell id="15NfHXU1h-tPqAztqm66-4" value="Notify Tasks by date due" style="ellipse;whiteSpace=wrap;html=1;" vertex="1" parent="1">
          <mxGeometry x="550" y="540" width="140" height="70" as="geometry" />
        </mxCell>
      </root>
    </mxGraphModel>
  </diagram>
</mxfile>
